<?xml version="1.0" standalone="no"?>
<!DOCTYPE svg PUBLIC "-//W3C//DTD SVG 20010904//EN"
 "http://www.w3.org/TR/2001/REC-SVG-20010904/DTD/svg10.dtd">
<svg version="1.0" xmlns="http://www.w3.org/2000/svg"
 width="200.000000pt" height="200.000000pt" viewBox="0 0 200.000000 200.000000"
 preserveAspectRatio="xMidYMid meet">
<metadata>
Created by potrace 1.14, written by Peter Selinger 2001-2017
</metadata>
<g transform="translate(0.000000,200.000000) scale(0.100000,-0.100000)"
fill="#000000" stroke="none">
<path d="M238 1542 c-24 -3 -26 -6 -18 -28 5 -13 12 -35 14 -47 3 -12 14 -56
26 -97 12 -41 23 -82 25 -90 4 -17 213 -786 221 -812 5 -16 21 -18 154 -18
l148 0 42 153 c104 380 122 444 134 481 12 38 13 35 94 -260 45 -165 87 -316
92 -336 l11 -38 149 0 149 0 12 43 c6 23 71 264 145 535 74 272 134 498 134
503 0 15 -300 11 -304 -3 -5 -14 -106 -449 -110 -470 -1 -7 -13 -58 -26 -113
l-23 -99 -19 64 c-10 36 -20 74 -22 85 -3 11 -19 72 -35 135 -17 63 -48 180
-70 260 l-38 145 -128 0 -129 0 -8 -30 c-4 -16 -10 -39 -12 -50 -3 -11 -40
-153 -84 -315 -65 -239 -81 -289 -87 -265 -4 17 -12 48 -17 70 -6 22 -12 49
-14 60 -11 56 -123 527 -126 530 -5 5 -246 11 -280 7z"/>
</g>
</svg>
